<svg width="72" height="73" viewBox="0 0 72 73" fill="none" xmlns="http://www.w3.org/2000/svg">
<path d="M8.6897 12.569C8.6897 12.569 1.39653 21.5691 0.310308 30.1036L0 42.983C0 42.983 3.56899 54.9313 7.29313 57.2589L7.60347 36.0002C7.60347 36.0002 6.05175 25.4484 13.0346 18.6208H41.1208C41.1208 18.6208 54.9312 22.5001 52.2933 38.1726C52.2933 38.1726 54.4657 48.5692 39.414 53.2244L20.7932 52.7589L20.638 21.8794H16.7587L12.8793 27.776V59.8968H42.3622C42.3622 59.8968 55.3967 57.414 60.3623 40.8105C60.3623 40.8105 63.0002 16.7587 42.0518 12.1035L8.6897 12.569Z" fill="url(#paint0_linear_708_1442)"/>
<path d="M15.9824 64.3976L42.6722 64.5528C42.6722 64.5528 58.8102 60.8286 64.8619 43.9147L71.6896 43.4492C71.6896 43.4492 70.4482 58.8114 53.224 68.2769C53.224 68.2769 31.1894 78.9838 15.9824 64.3976Z" fill="url(#paint1_linear_708_1442)"/>
<path d="M16.6035 6.98279L38.6381 6.51727C38.6381 6.51727 57.5692 7.13796 65.1727 28.0863L72.0003 28.5518C72.0003 28.5518 65.4831 4.03449 43.7588 0.775861L30.414 0C30.414 0 18.4656 2.63794 16.6035 6.98279Z" fill="url(#paint2_linear_708_1442)"/>
<path d="M34.6839 24.208C34.6839 24.208 23.7819 25.506 29.405 36.8821L34.9516 45.3951L40.4217 36.6912C40.4217 36.6912 46.3126 26.0786 34.6839 24.208Z" fill="#F94141"/>
<path d="M37.9011 25.1113L29.6992 37.3334L32.4431 41.5486L39.8097 37.6841C39.8913 37.8469 45.5835 28.5529 37.9011 25.1113Z" fill="#C13535"/>
<path d="M34.7601 35.1644C36.5347 35.1644 37.9733 33.7287 37.9733 31.9577C37.9733 30.1867 36.5347 28.751 34.7601 28.751C32.9855 28.751 31.5469 30.1867 31.5469 31.9577C31.5469 33.7287 32.9855 35.1644 34.7601 35.1644Z" fill="white"/>
<path d="M32.2356 44.88C32.2356 44.88 30.0552 45.7389 33.1154 46.0061C33.1154 46.0061 35.6209 46.4451 37.5144 45.9107C37.5144 45.9107 39.4079 45.4717 37.5718 44.8418C37.5718 44.8418 40.8041 45.2236 38.7003 46.197C38.7003 46.197 35.7739 47.1132 32.2739 46.5215C32.2739 46.5215 28.1809 45.4335 32.2356 44.88Z" fill="#FF4F4F"/>
<path d="M30.7243 44.8799C30.7243 44.8799 28.0658 45.6816 30.1888 46.4832C30.1888 46.4832 34.8365 47.8384 38.7191 46.7886C38.7191 46.7886 42.2765 45.9679 38.9868 44.8799C38.9868 44.8799 44.017 45.5861 40.7847 47.2276C40.7847 47.2276 37.8584 48.2775 32.8474 47.8766C32.8474 47.8766 24.0302 46.6741 30.7243 44.8799Z" fill="#FF3D3D"/>
<defs>
<linearGradient id="paint0_linear_708_1442" x1="53.1805" y1="44.8077" x2="0.0241025" y2="46.6533" gradientUnits="userSpaceOnUse">
<stop stop-color="#2563A6"/>
<stop offset="1" stop-color="#E72C21"/>
</linearGradient>
<linearGradient id="paint1_linear_708_1442" x1="64.9749" y1="63.0307" x2="16.0851" y2="65.6424" gradientUnits="userSpaceOnUse">
<stop stop-color="#2563A6"/>
<stop offset="1" stop-color="#E72C21"/>
</linearGradient>
<linearGradient id="paint2_linear_708_1442" x1="65.3231" y1="19.5376" x2="16.7047" y2="22.1261" gradientUnits="userSpaceOnUse">
<stop stop-color="#2563A6"/>
<stop offset="1" stop-color="#E72C21"/>
</linearGradient>
</defs>
</svg>
